<svg width="870" height="830" viewBox="0 0 870 830" fill="none" xmlns="http://www.w3.org/2000/svg">
<g filter="url(#filter0_b_30_3)">
<path fill-rule="evenodd" clip-rule="evenodd" d="M0 0H870V830H0V0ZM687.384 333.503C687.611 352.794 683.98 360.283 663.555 383.204C644.491 404.31 638.818 415.431 638.818 430.636C638.818 442.21 646.761 462.181 653.569 467.855C656.519 470.351 656.746 468.763 655.612 457.189C653.796 439.941 658.335 429.047 676.264 408.849C697.37 384.793 703.043 375.261 704.178 362.552C705.086 350.524 699.866 334.411 691.469 323.745C689.859 321.688 688.884 320.441 688.293 320.603C687.384 320.851 687.384 324.427 687.384 333.503ZM711.667 397.275C716.206 387.97 717.795 372.765 714.844 363.687C711.894 354.155 718.475 359.602 725.965 372.538C731.411 382.07 732.773 387.743 733 397.502C733 413.388 728.461 422.466 709.852 443.345C688.973 466.947 683.526 478.521 684.661 496.45C685.795 513.244 683.072 512.79 673.313 494.181C666.278 480.337 665.37 461.5 671.044 450.834C673.086 446.976 681.937 435.402 691.015 424.962C699.866 414.523 709.171 402.041 711.667 397.275Z" fill="black" fill-opacity="0.15"/>
</g>
<defs>
<filter id="filter0_b_30_3" x="-45" y="-45" width="960" height="920" filterUnits="userSpaceOnUse" color-interpolation-filters="sRGB">
<feFlood flood-opacity="0" result="BackgroundImageFix"/>
<feGaussianBlur in="BackgroundImageFix" stdDeviation="50"/>
<feComposite in2="SourceAlpha" operator="in" result="effect1_backgroundBlur_30_3"/>
<feBlend mode="normal" in="SourceGraphic" in2="effect1_backgroundBlur_30_3" result="shape"/>
</filter>
</defs>
</svg>
